<svg fill="none" xmlns="http://www.w3.org/2000/svg" viewBox="0 0 123 85">
  <path d="M53.704 32.96c0 9.02-1.386 16.768-4.157 23.244-2.772 6.708-6.353 12.143-10.741 16.306-4.39 4.395-9.355 7.517-14.899 9.367C18.132 83.96 12.473 85 6.93 85V72.857c6.005 0 11.664-2.082 16.977-6.245 5.082-3.932 8.084-9.367 9.009-16.306-.694.231-1.502.463-2.426.694a33.25 33.25 0 0 1-2.425.694c-1.155.231-2.426.347-3.812.347-6.93 0-12.704-2.66-17.323-7.98C2.31 38.973 0 32.96 0 26.021c0-6.94 2.425-13.069 7.276-18.388C11.896 2.544 18.132 0 25.986 0c8.777 0 15.591 3.238 20.442 9.714 4.85 6.708 7.276 14.456 7.276 23.245Zm69.296 0c0 9.02-1.386 16.768-4.158 23.244-2.772 6.708-6.352 12.143-10.741 16.306-4.388 4.395-9.355 7.517-14.898 9.367C87.428 83.96 81.769 85 76.225 85V72.857c6.006 0 11.665-2.082 16.978-6.245 5.081-3.932 8.084-9.367 9.008-16.306-.693.231-1.501.463-2.425.694a33.25 33.25 0 0 1-2.425.694c-1.155.231-2.426.347-3.812.347-6.93 0-12.704-2.66-17.324-7.98-4.62-5.088-6.93-11.102-6.93-18.04 0-6.94 2.426-13.069 7.277-18.388C81.192 2.544 87.428 0 95.282 0c8.777 0 15.591 3.238 20.442 9.714C120.575 16.422 123 24.17 123 32.96Z" fill="#fff"></path>
</svg>
